<svg width="202" height="37" viewBox="0 0 202 37" fill="none" xmlns="http://www.w3.org/2000/svg">
<g filter="url(#filter0_b_4_2)">
<path d="M8.50426 29H0.833807L12.0838 2.81818H21.7997L27.8338 29H20.1634L16.3409 10.0284H16.1364L8.50426 29ZM8.12074 18.6705H22.5412L21.9915 23.9886H7.57102L8.12074 18.6705ZM30.4577 29L32.4265 9.36364H39.2788L38.908 13.0966H39.1126C39.6069 11.7159 40.2759 10.706 41.1197 10.0668C41.9634 9.42756 42.9094 9.10795 43.9577 9.10795C44.2646 9.10795 44.5629 9.13352 44.8526 9.18466C45.1509 9.22727 45.4407 9.28693 45.7219 9.36364L45.1083 15.3977C44.7674 15.2699 44.3455 15.1804 43.8427 15.1293C43.3398 15.0696 42.9009 15.0398 42.5259 15.0398C41.8441 15.0398 41.2134 15.1974 40.6339 15.5128C40.0629 15.8196 39.5898 16.2543 39.2148 16.8168C38.8398 17.3707 38.6097 18.0227 38.5245 18.7727L37.5146 29H30.4577ZM46.0671 29L48.0359 9.36364H55.0927L53.1239 29H46.0671ZM51.756 7.31818C50.793 7.31818 49.9961 7.00284 49.3654 6.37216C48.7433 5.73295 48.479 4.97443 48.5728 4.09659C48.6665 3.2017 49.0842 2.44318 49.8256 1.82102C50.5756 1.19034 51.4237 0.875 52.3697 0.875C53.3327 0.875 54.1211 1.19034 54.7347 1.82102C55.3484 2.44318 55.6126 3.2017 55.5273 4.09659C55.4506 4.97443 55.0415 5.73295 54.3001 6.37216C53.5586 7.00284 52.7106 7.31818 51.756 7.31818ZM62.1655 29.3068C60.9126 29.3068 59.826 29.1023 58.9055 28.6932C57.9936 28.2756 57.3075 27.6449 56.8473 26.8011C56.3871 25.9489 56.2209 24.875 56.3487 23.5795C56.4595 22.5057 56.7365 21.5895 57.1797 20.831C57.6229 20.0724 58.1939 19.4503 58.8928 18.9645C59.6001 18.4787 60.4013 18.108 61.2962 17.8523C62.1996 17.5881 63.1584 17.4176 64.1726 17.3409C65.2805 17.2557 66.1754 17.1491 66.8572 17.0213C67.5391 16.8935 68.0419 16.7187 68.3658 16.4972C68.6896 16.2756 68.8729 15.9773 68.9155 15.6023V15.5511C68.9581 15.0398 68.7962 14.6477 68.4297 14.375C68.0717 14.1023 67.5859 13.9659 66.9723 13.9659C66.299 13.9659 65.7322 14.1108 65.272 14.4006C64.8203 14.6903 64.522 15.142 64.3771 15.7557H57.8828C58.0874 14.5625 58.5774 13.4631 59.353 12.4574C60.1371 11.4432 61.2109 10.6335 62.5746 10.0284C63.9467 9.41477 65.6087 9.10795 67.5604 9.10795C68.9666 9.10795 70.2067 9.27415 71.2805 9.60653C72.3629 9.9304 73.2706 10.3864 74.0036 10.9744C74.7365 11.554 75.2692 12.2358 75.6016 13.0199C75.9425 13.7955 76.0661 14.6392 75.9723 15.5511L74.6172 29H68.0206L68.3018 26.2386H68.1484C67.6797 26.9716 67.1428 27.5639 66.5376 28.0156C65.9411 28.4673 65.2763 28.7955 64.5433 29C63.8104 29.2045 63.0178 29.3068 62.1655 29.3068ZM64.9268 24.858C65.4553 24.858 65.9666 24.7472 66.4609 24.5256C66.9638 24.304 67.3814 23.9844 67.7138 23.5668C68.0547 23.1491 68.255 22.642 68.3146 22.0455L68.468 20.4091C68.2805 20.4858 68.076 20.5582 67.8544 20.6264C67.6413 20.6861 67.4155 20.7457 67.1768 20.8054C66.9382 20.8651 66.6868 20.9205 66.4226 20.9716C66.1584 21.0227 65.8857 21.0739 65.6044 21.125C65.0419 21.2102 64.5774 21.3509 64.2109 21.5469C63.8445 21.7344 63.5632 21.9688 63.3672 22.25C63.1712 22.5227 63.0604 22.8295 63.0348 23.1705C62.9837 23.7074 63.1328 24.125 63.4822 24.4233C63.8402 24.7131 64.3217 24.858 64.9268 24.858ZM86.1836 17.9545L85.0842 29H78.0273L79.9833 9.36364H86.6822L86.3114 13.0966H86.516C87.0614 11.8437 87.9094 10.8679 89.06 10.169C90.2106 9.46165 91.5103 9.10795 92.9592 9.10795C94.3484 9.10795 95.5245 9.4233 96.4876 10.054C97.4506 10.6847 98.158 11.554 98.6097 12.6619C99.07 13.7699 99.2234 15.0398 99.07 16.4716L97.8171 29H90.7603L91.8597 17.9545C91.962 16.983 91.7915 16.2202 91.3484 15.6662C90.9137 15.1122 90.2489 14.8352 89.354 14.8352C88.783 14.8352 88.2674 14.9631 87.8072 15.2188C87.3555 15.4659 86.989 15.8239 86.7077 16.2926C86.4265 16.7528 86.2518 17.3068 86.1836 17.9545ZM124.223 11C124.248 10.1562 124.001 9.49574 123.481 9.01847C122.961 8.53267 122.126 8.28977 120.975 8.28977C120.243 8.28977 119.633 8.375 119.147 8.54545C118.67 8.71591 118.308 8.95028 118.061 9.24858C117.814 9.54687 117.669 9.89204 117.626 10.2841C117.566 10.5909 117.588 10.8722 117.69 11.1278C117.801 11.375 117.993 11.6009 118.265 11.8054C118.538 12.0099 118.892 12.1932 119.326 12.3551C119.77 12.517 120.294 12.6619 120.899 12.7898L122.995 13.25C124.41 13.5568 125.608 13.9616 126.588 14.4645C127.576 14.9588 128.365 15.5469 128.953 16.2287C129.541 16.9105 129.95 17.6733 130.18 18.517C130.41 19.3608 130.474 20.2812 130.372 21.2784C130.193 23 129.618 24.4574 128.646 25.6506C127.683 26.8438 126.379 27.7514 124.734 28.3736C123.089 28.9957 121.159 29.3068 118.943 29.3068C116.667 29.3068 114.716 28.9702 113.088 28.2969C111.468 27.6151 110.258 26.5753 109.457 25.1776C108.664 23.7713 108.375 21.9773 108.588 19.7955H115.338C115.295 20.5966 115.427 21.2699 115.734 21.8153C116.041 22.3608 116.505 22.7741 117.127 23.0554C117.75 23.3366 118.512 23.4773 119.416 23.4773C120.183 23.4773 120.831 23.3835 121.359 23.196C121.896 23.0085 122.309 22.7486 122.599 22.4162C122.897 22.0838 123.068 21.7045 123.11 21.2784C123.153 20.8864 123.059 20.5369 122.829 20.2301C122.608 19.9233 122.22 19.6463 121.666 19.3991C121.12 19.152 120.37 18.9261 119.416 18.7216L116.872 18.1591C114.613 17.6477 112.875 16.804 111.656 15.6278C110.446 14.4517 109.943 12.8409 110.147 10.7955C110.309 9.125 110.897 7.66761 111.912 6.4233C112.934 5.17045 114.277 4.19886 115.939 3.50852C117.609 2.80966 119.484 2.46023 121.564 2.46023C123.677 2.46023 125.467 2.81392 126.933 3.52131C128.407 4.22869 129.498 5.22159 130.206 6.5C130.922 7.77841 131.194 9.27841 131.024 11H124.223ZM141.794 29.358C139.698 29.358 137.929 28.9574 136.489 28.1562C135.057 27.3466 134.009 26.1875 133.344 24.679C132.688 23.1619 132.466 21.3466 132.679 19.233C132.884 17.2045 133.468 15.4318 134.431 13.9148C135.402 12.3977 136.676 11.2173 138.253 10.3736C139.83 9.52983 141.632 9.10795 143.661 9.10795C145.144 9.10795 146.461 9.33807 147.611 9.7983C148.77 10.2585 149.729 10.9276 150.488 11.8054C151.255 12.6832 151.804 13.7443 152.137 14.9886C152.478 16.2244 152.571 17.6222 152.418 19.1818L152.265 20.8182H134.725L135.096 16.9318H146.141C146.184 16.3693 146.09 15.875 145.86 15.4489C145.638 15.0142 145.31 14.6776 144.875 14.4389C144.449 14.1918 143.942 14.0682 143.354 14.0682C142.783 14.0682 142.246 14.1918 141.743 14.4389C141.249 14.6861 140.84 15.027 140.516 15.4616C140.192 15.8963 139.992 16.4077 139.915 16.9957L139.455 21.125C139.387 21.7557 139.459 22.3182 139.672 22.8125C139.885 23.3068 140.222 23.6946 140.682 23.9759C141.151 24.2571 141.735 24.3977 142.434 24.3977C142.919 24.3977 143.371 24.3338 143.789 24.206C144.206 24.0696 144.573 23.8736 144.888 23.6179C145.212 23.3537 145.463 23.0341 145.642 22.6591H152.086C151.719 24.0227 151.071 25.2074 150.142 26.2131C149.213 27.2102 148.042 27.9858 146.627 28.5398C145.221 29.0852 143.61 29.358 141.794 29.358ZM154.313 29L156.282 9.36364H163.134L162.763 13.0966H162.968C163.462 11.7159 164.131 10.706 164.975 10.0668C165.819 9.42756 166.765 9.10795 167.813 9.10795C168.12 9.10795 168.418 9.13352 168.708 9.18466C169.006 9.22727 169.296 9.28693 169.577 9.36364L168.964 15.3977C168.623 15.2699 168.201 15.1804 167.698 15.1293C167.195 15.0696 166.756 15.0398 166.381 15.0398C165.7 15.0398 165.069 15.1974 164.489 15.5128C163.918 15.8196 163.445 16.2543 163.07 16.8168C162.695 17.3707 162.465 18.0227 162.38 18.7727L161.37 29H154.313ZM177.529 36.7727C175.552 36.7727 173.89 36.4915 172.543 35.929C171.197 35.375 170.183 34.608 169.501 33.6278C168.827 32.6563 168.504 31.5398 168.529 30.2784H175.33C175.364 30.7045 175.505 31.0455 175.752 31.3011C175.999 31.5568 176.332 31.7401 176.749 31.8509C177.167 31.9616 177.648 32.017 178.194 32.017C179.106 32.017 179.881 31.7912 180.521 31.3395C181.168 30.8963 181.539 30.0994 181.633 28.9489L181.978 25.625H181.773C181.45 26.2898 181.002 26.8565 180.431 27.3253C179.86 27.7855 179.191 28.1392 178.424 28.3864C177.657 28.625 176.83 28.7443 175.944 28.7443C174.546 28.7443 173.293 28.4205 172.185 27.7727C171.077 27.125 170.242 26.098 169.68 24.6918C169.117 23.2855 168.947 21.4489 169.168 19.1818C169.407 16.8125 169.969 14.8864 170.856 13.4034C171.742 11.9205 172.803 10.8338 174.039 10.1435C175.283 9.45312 176.553 9.10795 177.849 9.10795C178.82 9.10795 179.656 9.27841 180.354 9.61932C181.053 9.9517 181.62 10.3991 182.055 10.9616C182.498 11.5156 182.813 12.125 183.001 12.7898H183.154L183.499 9.36364H190.556L188.587 28.9489C188.434 30.6193 187.871 32.0341 186.9 33.1932C185.937 34.3608 184.65 35.2472 183.039 35.8523C181.428 36.4659 179.592 36.7727 177.529 36.7727ZM179.038 23.733C179.685 23.733 180.261 23.554 180.763 23.196C181.266 22.8295 181.675 22.3097 181.991 21.6364C182.315 20.9545 182.523 20.1364 182.617 19.1818C182.711 18.2102 182.664 17.3793 182.477 16.6889C182.298 15.9901 181.995 15.4574 181.569 15.0909C181.143 14.7159 180.606 14.5284 179.958 14.5284C179.31 14.5284 178.739 14.7159 178.245 15.0909C177.751 15.4574 177.346 15.9901 177.031 16.6889C176.724 17.3793 176.523 18.2102 176.43 19.1818C176.336 20.1534 176.374 20.9801 176.545 21.6619C176.724 22.3352 177.022 22.8509 177.44 23.2088C177.857 23.5582 178.39 23.733 179.038 23.733ZM192.176 29L194.145 9.36364H201.202L199.233 29H192.176ZM197.865 7.31818C196.902 7.31818 196.105 7.00284 195.475 6.37216C194.853 5.73295 194.588 4.97443 194.682 4.09659C194.776 3.2017 195.194 2.44318 195.935 1.82102C196.685 1.19034 197.533 0.875 198.479 0.875C199.442 0.875 200.23 1.19034 200.844 1.82102C201.458 2.44318 201.722 3.2017 201.637 4.09659C201.56 4.97443 201.151 5.73295 200.409 6.37216C199.668 7.00284 198.82 7.31818 197.865 7.31818Z" fill="#4177A8"/>
</g>
<defs>
<filter id="filter0_b_4_2" x="-3.16619" y="-3.125" width="208.931" height="43.8977" filterUnits="userSpaceOnUse" color-interpolation-filters="sRGB">
<feFlood flood-opacity="0" result="BackgroundImageFix"/>
<feGaussianBlur in="BackgroundImageFix" stdDeviation="2"/>
<feComposite in2="SourceAlpha" operator="in" result="effect1_backgroundBlur_4_2"/>
<feBlend mode="normal" in="SourceGraphic" in2="effect1_backgroundBlur_4_2" result="shape"/>
</filter>
</defs>
</svg>
